<mxfile host="app.diagrams.net" modified="2023-11-16T20:18:26.201Z" agent="Mozilla/5.0 (X11; Linux x86_64) AppleWebKit/537.36 (KHTML, like Gecko) Chrome/119.0.0.0 Safari/537.36" etag="bSgTakxRBys25Xki1G8h" version="22.1.2" type="device">
  <diagram name="Page-1" id="8KJvue8pIyyta4x6hFDf">
    <mxGraphModel dx="1984" dy="932" grid="0" gridSize="10" guides="1" tooltips="1" connect="1" arrows="1" fold="1" page="0" pageScale="1" pageWidth="850" pageHeight="1100" math="1" shadow="0">
      <root>
        <mxCell id="0" />
        <mxCell id="1" parent="0" />
        <mxCell id="VJ9uIm3JzbdJXVkBTZF5-58" value="" style="shape=image;verticalLabelPosition=bottom;labelBackgroundColor=default;verticalAlign=top;aspect=fixed;imageAspect=0;image=https://ih1.redbubble.net/image.1535588268.5905/fposter,small,wall_texture,square_product,1000x1000.jpg;rotation=-90;clipPath=inset(5.67% 37.67% 13% 37.33%);flipV=1;" vertex="1" parent="1">
          <mxGeometry x="0.40000000000000213" y="221" width="100.2" height="325.97" as="geometry" />
        </mxCell>
        <mxCell id="VJ9uIm3JzbdJXVkBTZF5-62" value="" style="endArrow=oval;html=1;rounded=0;startArrow=oval;startFill=1;endFill=1;" edge="1" parent="1">
          <mxGeometry width="50" height="50" relative="1" as="geometry">
            <mxPoint x="9" y="383.85" as="sourcePoint" />
            <mxPoint x="7.995886048836368" y="383.93499999999983" as="targetPoint" />
          </mxGeometry>
        </mxCell>
        <mxCell id="wxT5dtG3Ft-i3phk4-oh-19" value="$$f_{E_y}$$" style="text;html=1;strokeColor=none;fillColor=none;align=center;verticalAlign=middle;whiteSpace=wrap;rounded=0;" parent="1" vertex="1">
          <mxGeometry x="-569" y="72" width="60" height="30" as="geometry" />
        </mxCell>
        <mxCell id="cKY3SO8BMUT4zE2LUJuK-71" value="" style="curved=1;endArrow=classic;html=1;rounded=0;" parent="1" edge="1">
          <mxGeometry width="50" height="50" relative="1" as="geometry">
            <mxPoint x="59" y="126" as="sourcePoint" />
            <mxPoint x="62" y="118" as="targetPoint" />
            <Array as="points">
              <mxPoint x="76" y="126" />
              <mxPoint x="78" y="117" />
            </Array>
          </mxGeometry>
        </mxCell>
        <mxCell id="cKY3SO8BMUT4zE2LUJuK-1" value="" style="endArrow=oval;html=1;rounded=0;startArrow=oval;startFill=1;endFill=1;" parent="1" edge="1">
          <mxGeometry width="50" height="50" relative="1" as="geometry">
            <mxPoint x="-141" y="188" as="sourcePoint" />
            <mxPoint x="244" y="219" as="targetPoint" />
            <Array as="points">
              <mxPoint x="63" y="175" />
            </Array>
          </mxGeometry>
        </mxCell>
        <mxCell id="cKY3SO8BMUT4zE2LUJuK-2" value="" style="endArrow=classic;html=1;rounded=0;fillColor=#f8cecc;strokeColor=#f50800;dashed=1;strokeWidth=2;" parent="1" edge="1">
          <mxGeometry width="50" height="50" relative="1" as="geometry">
            <mxPoint x="-140.5" y="187" as="sourcePoint" />
            <mxPoint x="-90.5" y="137" as="targetPoint" />
          </mxGeometry>
        </mxCell>
        <mxCell id="cKY3SO8BMUT4zE2LUJuK-3" value="" style="endArrow=classic;html=1;rounded=0;fillColor=#f8cecc;strokeColor=#f50800;dashed=1;strokeWidth=2;" parent="1" edge="1">
          <mxGeometry width="50" height="50" relative="1" as="geometry">
            <mxPoint x="-140.5" y="188" as="sourcePoint" />
            <mxPoint x="-140.5" y="113" as="targetPoint" />
          </mxGeometry>
        </mxCell>
        <mxCell id="cKY3SO8BMUT4zE2LUJuK-6" value="" style="endArrow=classic;html=1;rounded=0;fillColor=#f8cecc;strokeColor=#f50800;dashed=1;strokeWidth=2;" parent="1" edge="1">
          <mxGeometry width="50" height="50" relative="1" as="geometry">
            <mxPoint x="-138.5" y="188" as="sourcePoint" />
            <mxPoint x="-67.5" y="188" as="targetPoint" />
          </mxGeometry>
        </mxCell>
        <mxCell id="cKY3SO8BMUT4zE2LUJuK-11" value="$$y_E$$" style="text;html=1;align=center;verticalAlign=middle;resizable=0;points=[];autosize=1;strokeColor=none;fillColor=none;" parent="1" vertex="1">
          <mxGeometry x="-130.5" y="112" width="65" height="26" as="geometry" />
        </mxCell>
        <mxCell id="cKY3SO8BMUT4zE2LUJuK-13" value="$$x_E$$" style="text;html=1;align=center;verticalAlign=middle;resizable=0;points=[];autosize=1;strokeColor=none;fillColor=none;" parent="1" vertex="1">
          <mxGeometry x="-130.5" y="187" width="65" height="26" as="geometry" />
        </mxCell>
        <mxCell id="cKY3SO8BMUT4zE2LUJuK-12" value="$$z_E$$" style="text;html=1;align=center;verticalAlign=middle;resizable=0;points=[];autosize=1;strokeColor=none;fillColor=none;" parent="1" vertex="1">
          <mxGeometry x="-187" y="123" width="65" height="26" as="geometry" />
        </mxCell>
        <mxCell id="cKY3SO8BMUT4zE2LUJuK-14" value="" style="endArrow=classic;html=1;rounded=0;fillColor=#f8cecc;strokeColor=#f50800;dashed=1;strokeWidth=2;" parent="1" edge="1">
          <mxGeometry width="50" height="50" relative="1" as="geometry">
            <mxPoint x="65" y="175" as="sourcePoint" />
            <mxPoint x="115" y="125" as="targetPoint" />
          </mxGeometry>
        </mxCell>
        <mxCell id="cKY3SO8BMUT4zE2LUJuK-15" value="" style="endArrow=classic;html=1;rounded=0;fillColor=#f8cecc;strokeColor=#f50800;dashed=1;strokeWidth=2;" parent="1" edge="1">
          <mxGeometry width="50" height="50" relative="1" as="geometry">
            <mxPoint x="65" y="176" as="sourcePoint" />
            <mxPoint x="65" y="101" as="targetPoint" />
          </mxGeometry>
        </mxCell>
        <mxCell id="cKY3SO8BMUT4zE2LUJuK-16" value="$$y$$" style="text;html=1;align=center;verticalAlign=middle;resizable=0;points=[];autosize=1;strokeColor=none;fillColor=none;" parent="1" vertex="1">
          <mxGeometry x="101" y="102" width="51" height="26" as="geometry" />
        </mxCell>
        <mxCell id="cKY3SO8BMUT4zE2LUJuK-17" value="$$z$$" style="text;html=1;align=center;verticalAlign=middle;resizable=0;points=[];autosize=1;strokeColor=none;fillColor=none;" parent="1" vertex="1">
          <mxGeometry x="50" y="78" width="51" height="26" as="geometry" />
        </mxCell>
        <mxCell id="cKY3SO8BMUT4zE2LUJuK-18" value="$$x$$" style="text;html=1;align=center;verticalAlign=middle;resizable=0;points=[];autosize=1;strokeColor=none;fillColor=none;" parent="1" vertex="1">
          <mxGeometry x="82" y="175" width="51" height="26" as="geometry" />
        </mxCell>
        <mxCell id="cKY3SO8BMUT4zE2LUJuK-19" value="" style="endArrow=classic;html=1;rounded=0;fillColor=#f8cecc;strokeColor=#f50800;dashed=1;strokeWidth=2;" parent="1" edge="1">
          <mxGeometry width="50" height="50" relative="1" as="geometry">
            <mxPoint x="63" y="174.6" as="sourcePoint" />
            <mxPoint x="134" y="174.6" as="targetPoint" />
          </mxGeometry>
        </mxCell>
        <mxCell id="cKY3SO8BMUT4zE2LUJuK-23" value="" style="endArrow=classic;html=1;rounded=0;fillColor=#f8cecc;strokeColor=#f50800;dashed=1;strokeWidth=2;" parent="1" edge="1">
          <mxGeometry width="50" height="50" relative="1" as="geometry">
            <mxPoint x="244" y="218.5" as="sourcePoint" />
            <mxPoint x="294" y="168.5" as="targetPoint" />
          </mxGeometry>
        </mxCell>
        <mxCell id="cKY3SO8BMUT4zE2LUJuK-24" value="" style="endArrow=classic;html=1;rounded=0;fillColor=#f8cecc;strokeColor=#f50800;dashed=1;strokeWidth=2;" parent="1" edge="1">
          <mxGeometry width="50" height="50" relative="1" as="geometry">
            <mxPoint x="244" y="219.5" as="sourcePoint" />
            <mxPoint x="244" y="144.5" as="targetPoint" />
          </mxGeometry>
        </mxCell>
        <mxCell id="cKY3SO8BMUT4zE2LUJuK-25" value="" style="endArrow=classic;html=1;rounded=0;fillColor=#f8cecc;strokeColor=#f50800;dashed=1;strokeWidth=2;" parent="1" edge="1">
          <mxGeometry width="50" height="50" relative="1" as="geometry">
            <mxPoint x="246" y="219.5" as="sourcePoint" />
            <mxPoint x="317" y="219.5" as="targetPoint" />
          </mxGeometry>
        </mxCell>
        <mxCell id="cKY3SO8BMUT4zE2LUJuK-26" value="$$y_{cp}$$" style="text;html=1;align=center;verticalAlign=middle;resizable=0;points=[];autosize=1;strokeColor=none;fillColor=none;" parent="1" vertex="1">
          <mxGeometry x="267" y="145.5" width="78" height="26" as="geometry" />
        </mxCell>
        <mxCell id="cKY3SO8BMUT4zE2LUJuK-27" value="$$x_{cp}$$" style="text;html=1;align=center;verticalAlign=middle;resizable=0;points=[];autosize=1;strokeColor=none;fillColor=none;" parent="1" vertex="1">
          <mxGeometry x="248" y="218.5" width="78" height="26" as="geometry" />
        </mxCell>
        <mxCell id="cKY3SO8BMUT4zE2LUJuK-28" value="$$z_{cp}$$" style="text;html=1;align=center;verticalAlign=middle;resizable=0;points=[];autosize=1;strokeColor=none;fillColor=none;" parent="1" vertex="1">
          <mxGeometry x="216" y="121.5" width="78" height="26" as="geometry" />
        </mxCell>
        <mxCell id="cKY3SO8BMUT4zE2LUJuK-31" value="" style="endArrow=oval;dashed=1;html=1;dashPattern=1 1;strokeWidth=2;rounded=1;startArrow=oval;startFill=1;endFill=1;" parent="1" edge="1">
          <mxGeometry width="50" height="50" relative="1" as="geometry">
            <mxPoint x="-102.5" y="172" as="sourcePoint" />
            <mxPoint x="-102.5" y="150" as="targetPoint" />
          </mxGeometry>
        </mxCell>
        <mxCell id="cKY3SO8BMUT4zE2LUJuK-32" value="" style="endArrow=oval;dashed=1;html=1;dashPattern=1 1;strokeWidth=2;rounded=1;startArrow=oval;startFill=1;endFill=1;" parent="1" edge="1">
          <mxGeometry width="50" height="50" relative="1" as="geometry">
            <mxPoint x="-139.5" y="188" as="sourcePoint" />
            <mxPoint x="-101.5" y="148" as="targetPoint" />
          </mxGeometry>
        </mxCell>
        <mxCell id="cKY3SO8BMUT4zE2LUJuK-33" value="$$\vec{r}_E$$" style="text;html=1;strokeColor=none;fillColor=none;align=center;verticalAlign=middle;whiteSpace=wrap;rounded=0;" parent="1" vertex="1">
          <mxGeometry x="-63" y="176" width="60" height="30" as="geometry" />
        </mxCell>
        <mxCell id="cKY3SO8BMUT4zE2LUJuK-34" value="$$\vec{r}_{cp}$$" style="text;html=1;strokeColor=none;fillColor=none;align=center;verticalAlign=middle;whiteSpace=wrap;rounded=0;" parent="1" vertex="1">
          <mxGeometry x="114" y="188.5" width="60" height="30" as="geometry" />
        </mxCell>
        <mxCell id="cKY3SO8BMUT4zE2LUJuK-35" value="" style="endArrow=none;dashed=1;html=1;dashPattern=1 1;strokeWidth=2;rounded=1;startArrow=oval;startFill=1;entryX=0.35;entryY=0.15;entryDx=0;entryDy=0;entryPerimeter=0;" parent="1" edge="1" target="cKY3SO8BMUT4zE2LUJuK-42">
          <mxGeometry width="50" height="50" relative="1" as="geometry">
            <mxPoint x="63" y="175" as="sourcePoint" />
            <mxPoint x="376" y="173" as="targetPoint" />
          </mxGeometry>
        </mxCell>
        <mxCell id="cKY3SO8BMUT4zE2LUJuK-36" value="" style="endArrow=none;dashed=1;html=1;dashPattern=1 1;strokeWidth=2;rounded=1;startArrow=oval;startFill=1;" parent="1" edge="1">
          <mxGeometry width="50" height="50" relative="1" as="geometry">
            <mxPoint x="244" y="185.5" as="sourcePoint" />
            <mxPoint x="244" y="215.5" as="targetPoint" />
          </mxGeometry>
        </mxCell>
        <mxCell id="cKY3SO8BMUT4zE2LUJuK-37" value="" style="endArrow=none;dashed=1;html=1;dashPattern=1 1;strokeWidth=2;rounded=1;startArrow=oval;startFill=1;" parent="1" edge="1">
          <mxGeometry width="50" height="50" relative="1" as="geometry">
            <mxPoint x="254" y="173.5" as="sourcePoint" />
            <mxPoint x="241" y="184.5" as="targetPoint" />
          </mxGeometry>
        </mxCell>
        <mxCell id="cKY3SO8BMUT4zE2LUJuK-38" value="$$r_{E_x}$$" style="text;html=1;strokeColor=none;fillColor=none;align=center;verticalAlign=middle;whiteSpace=wrap;rounded=0;" parent="1" vertex="1">
          <mxGeometry x="-73" y="147.5" width="60" height="30" as="geometry" />
        </mxCell>
        <mxCell id="cKY3SO8BMUT4zE2LUJuK-39" value="$$r_{E_z}$$" style="text;html=1;strokeColor=none;fillColor=none;align=center;verticalAlign=middle;whiteSpace=wrap;rounded=0;" parent="1" vertex="1">
          <mxGeometry x="-115" y="144" width="60" height="30" as="geometry" />
        </mxCell>
        <mxCell id="cKY3SO8BMUT4zE2LUJuK-40" value="$$r_{E_y}$$" style="text;html=1;strokeColor=none;fillColor=none;align=center;verticalAlign=middle;whiteSpace=wrap;rounded=0;" parent="1" vertex="1">
          <mxGeometry x="-154.5" y="134" width="60" height="30" as="geometry" />
        </mxCell>
        <mxCell id="cKY3SO8BMUT4zE2LUJuK-41" value="$$r_{cp_x}$$" style="text;html=1;strokeColor=none;fillColor=none;align=center;verticalAlign=middle;whiteSpace=wrap;rounded=0;" parent="1" vertex="1">
          <mxGeometry x="131" y="146" width="60" height="30" as="geometry" />
        </mxCell>
        <mxCell id="cKY3SO8BMUT4zE2LUJuK-42" value="$$r_{cp_y}$$" style="text;html=1;strokeColor=none;fillColor=none;align=center;verticalAlign=middle;whiteSpace=wrap;rounded=0;" parent="1" vertex="1">
          <mxGeometry x="232" y="168.5" width="60" height="30" as="geometry" />
        </mxCell>
        <mxCell id="cKY3SO8BMUT4zE2LUJuK-44" value="$$r_{cp_z}$$" style="text;html=1;strokeColor=none;fillColor=none;align=center;verticalAlign=middle;whiteSpace=wrap;rounded=0;" parent="1" vertex="1">
          <mxGeometry x="202" y="182.5" width="60" height="30" as="geometry" />
        </mxCell>
        <mxCell id="cKY3SO8BMUT4zE2LUJuK-47" value="" style="endArrow=classic;html=1;rounded=0;fillColor=#dae8fc;strokeColor=#6c8ebf;strokeWidth=2;" parent="1" edge="1">
          <mxGeometry width="50" height="50" relative="1" as="geometry">
            <mxPoint x="64" y="229" as="sourcePoint" />
            <mxPoint x="64" y="179" as="targetPoint" />
          </mxGeometry>
        </mxCell>
        <mxCell id="cKY3SO8BMUT4zE2LUJuK-49" value="$$f_{g_z}$$" style="text;html=1;strokeColor=none;fillColor=none;align=center;verticalAlign=middle;whiteSpace=wrap;rounded=0;" parent="1" vertex="1">
          <mxGeometry x="45.5" y="199" width="60" height="30" as="geometry" />
        </mxCell>
        <mxCell id="cKY3SO8BMUT4zE2LUJuK-50" value="" style="endArrow=classic;html=1;rounded=0;fillColor=#dae8fc;strokeColor=#6c8ebf;strokeWidth=2;" parent="1" edge="1">
          <mxGeometry width="50" height="50" relative="1" as="geometry">
            <mxPoint x="23" y="213.5" as="sourcePoint" />
            <mxPoint x="60" y="178.5" as="targetPoint" />
          </mxGeometry>
        </mxCell>
        <mxCell id="cKY3SO8BMUT4zE2LUJuK-51" value="$$f_{g_y}$$" style="text;html=1;strokeColor=none;fillColor=none;align=center;verticalAlign=middle;whiteSpace=wrap;rounded=0;" parent="1" vertex="1">
          <mxGeometry x="-16" y="183" width="60" height="30" as="geometry" />
        </mxCell>
        <mxCell id="cKY3SO8BMUT4zE2LUJuK-53" value="" style="endArrow=classic;html=1;rounded=0;fillColor=#dae8fc;strokeColor=#6c8ebf;strokeWidth=2;" parent="1" edge="1">
          <mxGeometry width="50" height="50" relative="1" as="geometry">
            <mxPoint y="174" as="sourcePoint" />
            <mxPoint x="60" y="174" as="targetPoint" />
          </mxGeometry>
        </mxCell>
        <mxCell id="cKY3SO8BMUT4zE2LUJuK-54" value="$$f_{g_x}$$" style="text;html=1;strokeColor=none;fillColor=none;align=center;verticalAlign=middle;whiteSpace=wrap;rounded=0;" parent="1" vertex="1">
          <mxGeometry x="-7" y="144" width="60" height="30" as="geometry" />
        </mxCell>
        <mxCell id="cKY3SO8BMUT4zE2LUJuK-55" value="" style="endArrow=classic;html=1;rounded=0;fillColor=#dae8fc;strokeColor=#6c8ebf;strokeWidth=2;" parent="1" edge="1">
          <mxGeometry width="50" height="50" relative="1" as="geometry">
            <mxPoint x="247" y="271.5" as="sourcePoint" />
            <mxPoint x="247" y="221.5" as="targetPoint" />
          </mxGeometry>
        </mxCell>
        <mxCell id="cKY3SO8BMUT4zE2LUJuK-56" value="$$f_{cp_z}$$" style="text;html=1;strokeColor=none;fillColor=none;align=center;verticalAlign=middle;whiteSpace=wrap;rounded=0;" parent="1" vertex="1">
          <mxGeometry x="232" y="244.5" width="60" height="30" as="geometry" />
        </mxCell>
        <mxCell id="cKY3SO8BMUT4zE2LUJuK-57" value="" style="endArrow=classic;html=1;rounded=0;fillColor=#dae8fc;strokeColor=#6c8ebf;strokeWidth=2;" parent="1" edge="1">
          <mxGeometry width="50" height="50" relative="1" as="geometry">
            <mxPoint x="206" y="256" as="sourcePoint" />
            <mxPoint x="243" y="221" as="targetPoint" />
          </mxGeometry>
        </mxCell>
        <mxCell id="cKY3SO8BMUT4zE2LUJuK-58" value="$$f_{cp_y}$$" style="text;html=1;strokeColor=none;fillColor=none;align=center;verticalAlign=middle;whiteSpace=wrap;rounded=0;" parent="1" vertex="1">
          <mxGeometry x="167" y="225.5" width="60" height="30" as="geometry" />
        </mxCell>
        <mxCell id="cKY3SO8BMUT4zE2LUJuK-59" value="" style="endArrow=classic;html=1;rounded=0;fillColor=#dae8fc;strokeColor=#6c8ebf;strokeWidth=2;" parent="1" edge="1">
          <mxGeometry width="50" height="50" relative="1" as="geometry">
            <mxPoint x="183" y="216.5" as="sourcePoint" />
            <mxPoint x="243" y="216.5" as="targetPoint" />
          </mxGeometry>
        </mxCell>
        <mxCell id="cKY3SO8BMUT4zE2LUJuK-60" value="$$f_{cp_x}$$" style="text;html=1;strokeColor=none;fillColor=none;align=center;verticalAlign=middle;whiteSpace=wrap;rounded=0;" parent="1" vertex="1">
          <mxGeometry x="176" y="186.5" width="60" height="30" as="geometry" />
        </mxCell>
        <mxCell id="cKY3SO8BMUT4zE2LUJuK-61" value="" style="endArrow=classic;html=1;rounded=0;fillColor=#dae8fc;strokeColor=#6c8ebf;strokeWidth=2;" parent="1" edge="1">
          <mxGeometry width="50" height="50" relative="1" as="geometry">
            <mxPoint x="-139" y="242.5" as="sourcePoint" />
            <mxPoint x="-139" y="192.5" as="targetPoint" />
          </mxGeometry>
        </mxCell>
        <mxCell id="cKY3SO8BMUT4zE2LUJuK-62" value="$$f_{E_z}$$" style="text;html=1;strokeColor=none;fillColor=none;align=center;verticalAlign=middle;whiteSpace=wrap;rounded=0;" parent="1" vertex="1">
          <mxGeometry x="-157.5" y="212.5" width="60" height="30" as="geometry" />
        </mxCell>
        <mxCell id="cKY3SO8BMUT4zE2LUJuK-63" value="" style="endArrow=classic;html=1;rounded=0;fillColor=#dae8fc;strokeColor=#6c8ebf;strokeWidth=2;" parent="1" edge="1">
          <mxGeometry width="50" height="50" relative="1" as="geometry">
            <mxPoint x="-180" y="227" as="sourcePoint" />
            <mxPoint x="-143" y="192" as="targetPoint" />
          </mxGeometry>
        </mxCell>
        <mxCell id="cKY3SO8BMUT4zE2LUJuK-64" value="$$f_{E_y}$$" style="text;html=1;strokeColor=none;fillColor=none;align=center;verticalAlign=middle;whiteSpace=wrap;rounded=0;" parent="1" vertex="1">
          <mxGeometry x="-219" y="196.5" width="60" height="30" as="geometry" />
        </mxCell>
        <mxCell id="cKY3SO8BMUT4zE2LUJuK-65" value="" style="endArrow=classic;html=1;rounded=0;fillColor=#dae8fc;strokeColor=#6c8ebf;strokeWidth=2;" parent="1" edge="1">
          <mxGeometry width="50" height="50" relative="1" as="geometry">
            <mxPoint x="-203" y="187.5" as="sourcePoint" />
            <mxPoint x="-143" y="187.5" as="targetPoint" />
          </mxGeometry>
        </mxCell>
        <mxCell id="cKY3SO8BMUT4zE2LUJuK-66" value="$$f_{E_x}$$" style="text;html=1;strokeColor=none;fillColor=none;align=center;verticalAlign=middle;whiteSpace=wrap;rounded=0;" parent="1" vertex="1">
          <mxGeometry x="-210" y="157.5" width="60" height="30" as="geometry" />
        </mxCell>
        <mxCell id="cKY3SO8BMUT4zE2LUJuK-69" value="" style="curved=1;endArrow=classic;html=1;rounded=0;" parent="1" edge="1">
          <mxGeometry width="50" height="50" relative="1" as="geometry">
            <mxPoint x="79.5" y="148" as="sourcePoint" />
            <mxPoint x="91.5" y="126" as="targetPoint" />
            <Array as="points">
              <mxPoint x="94.5" y="154" />
              <mxPoint x="105.5" y="140" />
            </Array>
          </mxGeometry>
        </mxCell>
        <mxCell id="cKY3SO8BMUT4zE2LUJuK-70" value="" style="curved=1;endArrow=classic;html=1;rounded=0;" parent="1" edge="1">
          <mxGeometry width="50" height="50" relative="1" as="geometry">
            <mxPoint x="107.5" y="183" as="sourcePoint" />
            <mxPoint x="105.5" y="161" as="targetPoint" />
            <Array as="points">
              <mxPoint x="123.5" y="180" />
              <mxPoint x="122.5" y="163" />
            </Array>
          </mxGeometry>
        </mxCell>
        <mxCell id="cKY3SO8BMUT4zE2LUJuK-72" value="$$+$$" style="text;strokeColor=none;fillColor=none;align=left;verticalAlign=middle;spacingLeft=4;spacingRight=4;overflow=hidden;points=[[0,0.5],[1,0.5]];portConstraint=eastwest;rotatable=0;whiteSpace=wrap;html=1;" parent="1" vertex="1">
          <mxGeometry x="75" y="112" width="80" height="30" as="geometry" />
        </mxCell>
        <mxCell id="cKY3SO8BMUT4zE2LUJuK-74" value="$$+$$" style="text;strokeColor=none;fillColor=none;align=left;verticalAlign=middle;spacingLeft=4;spacingRight=4;overflow=hidden;points=[[0,0.5],[1,0.5]];portConstraint=eastwest;rotatable=0;whiteSpace=wrap;html=1;" parent="1" vertex="1">
          <mxGeometry x="111" y="136" width="80" height="30" as="geometry" />
        </mxCell>
        <mxCell id="cKY3SO8BMUT4zE2LUJuK-75" value="$$+$$" style="text;strokeColor=none;fillColor=none;align=left;verticalAlign=middle;spacingLeft=4;spacingRight=4;overflow=hidden;points=[[0,0.5],[1,0.5]];portConstraint=eastwest;rotatable=0;whiteSpace=wrap;html=1;" parent="1" vertex="1">
          <mxGeometry x="42" y="102" width="80" height="30" as="geometry" />
        </mxCell>
        <mxCell id="yqHXjFPTVURxlk8dE4jV-1" value="" style="shape=image;verticalLabelPosition=bottom;labelBackgroundColor=default;verticalAlign=top;aspect=fixed;imageAspect=0;image=https://ih1.redbubble.net/image.1535588268.5905/fposter,small,wall_texture,square_product,1000x1000.jpg;rotation=-90;clipPath=inset(5.67% 37.67% 13% 37.33%);flipV=1;" parent="1" vertex="1">
          <mxGeometry x="-2.9999999999999982" y="-336" width="197.83" height="643.57" as="geometry" />
        </mxCell>
        <mxCell id="wxT5dtG3Ft-i3phk4-oh-6" value="" style="endArrow=classic;html=1;rounded=0;fillColor=#f8cecc;strokeColor=#f50800;dashed=1;strokeWidth=2;" parent="1" edge="1">
          <mxGeometry width="50" height="50" relative="1" as="geometry">
            <mxPoint x="-654.5" y="95" as="sourcePoint" />
            <mxPoint x="-604.5" y="45" as="targetPoint" />
          </mxGeometry>
        </mxCell>
        <mxCell id="wxT5dtG3Ft-i3phk4-oh-7" value="" style="endArrow=classic;html=1;rounded=0;fillColor=#f8cecc;strokeColor=#f50800;dashed=1;strokeWidth=2;" parent="1" edge="1">
          <mxGeometry width="50" height="50" relative="1" as="geometry">
            <mxPoint x="-654.5" y="96" as="sourcePoint" />
            <mxPoint x="-654.5" y="21" as="targetPoint" />
          </mxGeometry>
        </mxCell>
        <mxCell id="wxT5dtG3Ft-i3phk4-oh-8" value="" style="endArrow=classic;html=1;rounded=0;fillColor=#f8cecc;strokeColor=#f50800;dashed=1;strokeWidth=2;" parent="1" edge="1">
          <mxGeometry width="50" height="50" relative="1" as="geometry">
            <mxPoint x="-652.5" y="96" as="sourcePoint" />
            <mxPoint x="-581.5" y="96" as="targetPoint" />
          </mxGeometry>
        </mxCell>
        <mxCell id="wxT5dtG3Ft-i3phk4-oh-9" value="$$y_E$$" style="text;html=1;align=center;verticalAlign=middle;resizable=0;points=[];autosize=1;strokeColor=none;fillColor=none;" parent="1" vertex="1">
          <mxGeometry x="-625.5" y="22" width="65" height="26" as="geometry" />
        </mxCell>
        <mxCell id="wxT5dtG3Ft-i3phk4-oh-10" value="$$x_E$$" style="text;html=1;align=center;verticalAlign=middle;resizable=0;points=[];autosize=1;strokeColor=none;fillColor=none;" parent="1" vertex="1">
          <mxGeometry x="-659" y="97" width="65" height="26" as="geometry" />
        </mxCell>
        <mxCell id="wxT5dtG3Ft-i3phk4-oh-11" value="$$z_E$$" style="text;html=1;align=center;verticalAlign=middle;resizable=0;points=[];autosize=1;strokeColor=none;fillColor=none;" parent="1" vertex="1">
          <mxGeometry x="-702" y="29" width="65" height="26" as="geometry" />
        </mxCell>
        <mxCell id="wxT5dtG3Ft-i3phk4-oh-16" value="" style="endArrow=classic;html=1;rounded=0;fillColor=#dae8fc;strokeColor=#6c8ebf;strokeWidth=2;" parent="1" edge="1">
          <mxGeometry width="50" height="50" relative="1" as="geometry">
            <mxPoint x="-655" y="95" as="sourcePoint" />
            <mxPoint x="-525" y="10" as="targetPoint" />
          </mxGeometry>
        </mxCell>
        <mxCell id="wxT5dtG3Ft-i3phk4-oh-17" value="$$f_{E_z}$$" style="text;html=1;strokeColor=none;fillColor=none;align=center;verticalAlign=middle;whiteSpace=wrap;rounded=0;" parent="1" vertex="1">
          <mxGeometry x="-535" y="25" width="60" height="30" as="geometry" />
        </mxCell>
        <mxCell id="wxT5dtG3Ft-i3phk4-oh-18" value="" style="endArrow=classic;html=1;rounded=0;fillColor=#dae8fc;strokeColor=#6c8ebf;strokeWidth=2;" parent="1" edge="1">
          <mxGeometry width="50" height="50" relative="1" as="geometry">
            <mxPoint x="-655" y="95" as="sourcePoint" />
            <mxPoint x="-567" y="96" as="targetPoint" />
          </mxGeometry>
        </mxCell>
        <mxCell id="wxT5dtG3Ft-i3phk4-oh-20" value="" style="endArrow=classic;html=1;rounded=0;fillColor=#dae8fc;strokeColor=#6c8ebf;strokeWidth=2;" parent="1" edge="1">
          <mxGeometry width="50" height="50" relative="1" as="geometry">
            <mxPoint x="-568" y="96" as="sourcePoint" />
            <mxPoint x="-526" y="59" as="targetPoint" />
          </mxGeometry>
        </mxCell>
        <mxCell id="wxT5dtG3Ft-i3phk4-oh-21" value="$$f_{E_x}$$" style="text;html=1;strokeColor=none;fillColor=none;align=center;verticalAlign=middle;whiteSpace=wrap;rounded=0;" parent="1" vertex="1">
          <mxGeometry x="-597.5" y="95" width="60" height="30" as="geometry" />
        </mxCell>
        <mxCell id="wxT5dtG3Ft-i3phk4-oh-25" value="$$\Phi$$" style="text;html=1;strokeColor=none;fillColor=none;align=center;verticalAlign=middle;whiteSpace=wrap;rounded=0;" parent="1" vertex="1">
          <mxGeometry x="-616" y="65" width="60" height="30" as="geometry" />
        </mxCell>
        <mxCell id="wxT5dtG3Ft-i3phk4-oh-27" value="" style="endArrow=none;dashed=1;html=1;rounded=0;" parent="1" edge="1">
          <mxGeometry width="50" height="50" relative="1" as="geometry">
            <mxPoint x="-654" y="94" as="sourcePoint" />
            <mxPoint x="-633" y="12" as="targetPoint" />
          </mxGeometry>
        </mxCell>
        <mxCell id="wxT5dtG3Ft-i3phk4-oh-33" value="" style="curved=1;endArrow=classic;html=1;rounded=0;" parent="1" edge="1">
          <mxGeometry width="50" height="50" relative="1" as="geometry">
            <mxPoint x="-600" y="94" as="sourcePoint" />
            <mxPoint x="-600" y="65" as="targetPoint" />
            <Array as="points">
              <mxPoint x="-588" y="86" />
            </Array>
          </mxGeometry>
        </mxCell>
        <mxCell id="wxT5dtG3Ft-i3phk4-oh-40" value="" style="curved=1;endArrow=classic;html=1;rounded=0;" parent="1" edge="1">
          <mxGeometry width="50" height="50" relative="1" as="geometry">
            <mxPoint x="-617" y="55" as="sourcePoint" />
            <mxPoint x="-641" y="51" as="targetPoint" />
            <Array as="points">
              <mxPoint x="-619" y="48" />
              <mxPoint x="-636" y="48" />
            </Array>
          </mxGeometry>
        </mxCell>
        <mxCell id="wxT5dtG3Ft-i3phk4-oh-41" value="$$\Theta$$" style="text;html=1;strokeColor=none;fillColor=none;align=center;verticalAlign=middle;whiteSpace=wrap;rounded=0;" parent="1" vertex="1">
          <mxGeometry x="-654" y="25" width="60" height="30" as="geometry" />
        </mxCell>
        <mxCell id="wxT5dtG3Ft-i3phk4-oh-42" value="$$F_E$$" style="text;html=1;strokeColor=none;fillColor=none;align=center;verticalAlign=middle;whiteSpace=wrap;rounded=0;" parent="1" vertex="1">
          <mxGeometry x="-585" y="29" width="60" height="30" as="geometry" />
        </mxCell>
        <mxCell id="wxT5dtG3Ft-i3phk4-oh-45" value="" style="endArrow=classic;html=1;rounded=0;fillColor=#dae8fc;strokeColor=#6c8ebf;strokeWidth=2;" parent="1" edge="1">
          <mxGeometry width="50" height="50" relative="1" as="geometry">
            <mxPoint x="-526" y="58" as="sourcePoint" />
            <mxPoint x="-525" y="10" as="targetPoint" />
          </mxGeometry>
        </mxCell>
        <mxCell id="wxT5dtG3Ft-i3phk4-oh-47" value="" style="endArrow=none;dashed=1;html=1;rounded=0;" parent="1" edge="1">
          <mxGeometry width="50" height="50" relative="1" as="geometry">
            <mxPoint x="-631" y="11" as="sourcePoint" />
            <mxPoint x="-526" y="11" as="targetPoint" />
          </mxGeometry>
        </mxCell>
        <mxCell id="cKY3SO8BMUT4zE2LUJuK-29" value="" style="endArrow=oval;dashed=1;html=1;dashPattern=1 1;strokeWidth=2;rounded=1;startArrow=oval;startFill=1;endFill=1;" parent="1" edge="1">
          <mxGeometry width="50" height="50" relative="1" as="geometry">
            <mxPoint x="-104" y="174" as="sourcePoint" />
            <mxPoint x="65" y="174" as="targetPoint" />
          </mxGeometry>
        </mxCell>
        <mxCell id="VJ9uIm3JzbdJXVkBTZF5-10" value="" style="endArrow=classic;html=1;rounded=0;fillColor=#f8cecc;strokeColor=#f50800;dashed=1;strokeWidth=2;" edge="1" parent="1">
          <mxGeometry width="50" height="50" relative="1" as="geometry">
            <mxPoint x="8" y="384" as="sourcePoint" />
            <mxPoint x="58" y="334" as="targetPoint" />
          </mxGeometry>
        </mxCell>
        <mxCell id="VJ9uIm3JzbdJXVkBTZF5-11" value="" style="endArrow=classic;html=1;rounded=0;fillColor=#f8cecc;strokeColor=#f50800;dashed=1;strokeWidth=2;" edge="1" parent="1">
          <mxGeometry width="50" height="50" relative="1" as="geometry">
            <mxPoint x="8" y="385" as="sourcePoint" />
            <mxPoint x="8" y="310" as="targetPoint" />
          </mxGeometry>
        </mxCell>
        <mxCell id="VJ9uIm3JzbdJXVkBTZF5-12" value="$$y$$" style="text;html=1;align=center;verticalAlign=middle;resizable=0;points=[];autosize=1;strokeColor=none;fillColor=none;" vertex="1" parent="1">
          <mxGeometry x="44" y="311" width="51" height="26" as="geometry" />
        </mxCell>
        <mxCell id="VJ9uIm3JzbdJXVkBTZF5-13" value="$$z$$" style="text;html=1;align=center;verticalAlign=middle;resizable=0;points=[];autosize=1;strokeColor=none;fillColor=none;" vertex="1" parent="1">
          <mxGeometry x="-7" y="287" width="51" height="26" as="geometry" />
        </mxCell>
        <mxCell id="VJ9uIm3JzbdJXVkBTZF5-14" value="$$x$$" style="text;html=1;align=center;verticalAlign=middle;resizable=0;points=[];autosize=1;strokeColor=none;fillColor=none;" vertex="1" parent="1">
          <mxGeometry x="47" y="378" width="51" height="26" as="geometry" />
        </mxCell>
        <mxCell id="VJ9uIm3JzbdJXVkBTZF5-54" value="" style="curved=1;endArrow=classic;html=1;rounded=0;" edge="1" parent="1">
          <mxGeometry width="50" height="50" relative="1" as="geometry">
            <mxPoint x="50.5" y="392" as="sourcePoint" />
            <mxPoint x="48.5" y="370" as="targetPoint" />
            <Array as="points">
              <mxPoint x="66.5" y="389" />
              <mxPoint x="65.5" y="372" />
            </Array>
          </mxGeometry>
        </mxCell>
        <mxCell id="VJ9uIm3JzbdJXVkBTZF5-53" value="" style="curved=1;endArrow=classic;html=1;rounded=0;" edge="1" parent="1">
          <mxGeometry width="50" height="50" relative="1" as="geometry">
            <mxPoint x="22.5" y="357" as="sourcePoint" />
            <mxPoint x="34.5" y="335" as="targetPoint" />
            <Array as="points">
              <mxPoint x="37.5" y="363" />
              <mxPoint x="48.5" y="349" />
            </Array>
          </mxGeometry>
        </mxCell>
        <mxCell id="VJ9uIm3JzbdJXVkBTZF5-55" value="$$+$$" style="text;strokeColor=none;fillColor=none;align=left;verticalAlign=middle;spacingLeft=4;spacingRight=4;overflow=hidden;points=[[0,0.5],[1,0.5]];portConstraint=eastwest;rotatable=0;whiteSpace=wrap;html=1;" vertex="1" parent="1">
          <mxGeometry x="18" y="321" width="80" height="30" as="geometry" />
        </mxCell>
        <mxCell id="VJ9uIm3JzbdJXVkBTZF5-56" value="$$+$$" style="text;strokeColor=none;fillColor=none;align=left;verticalAlign=middle;spacingLeft=4;spacingRight=4;overflow=hidden;points=[[0,0.5],[1,0.5]];portConstraint=eastwest;rotatable=0;whiteSpace=wrap;html=1;" vertex="1" parent="1">
          <mxGeometry x="54" y="345" width="80" height="30" as="geometry" />
        </mxCell>
        <mxCell id="VJ9uIm3JzbdJXVkBTZF5-57" value="$$+$$" style="text;strokeColor=none;fillColor=none;align=left;verticalAlign=middle;spacingLeft=4;spacingRight=4;overflow=hidden;points=[[0,0.5],[1,0.5]];portConstraint=eastwest;rotatable=0;whiteSpace=wrap;html=1;" vertex="1" parent="1">
          <mxGeometry x="-16" y="319" width="24" height="30" as="geometry" />
        </mxCell>
        <mxCell id="VJ9uIm3JzbdJXVkBTZF5-2" value="" style="curved=1;endArrow=classic;html=1;rounded=0;" edge="1" parent="1">
          <mxGeometry width="50" height="50" relative="1" as="geometry">
            <mxPoint x="2" y="335" as="sourcePoint" />
            <mxPoint x="5" y="327" as="targetPoint" />
            <Array as="points">
              <mxPoint x="19" y="335" />
              <mxPoint x="21" y="326" />
            </Array>
          </mxGeometry>
        </mxCell>
        <mxCell id="VJ9uIm3JzbdJXVkBTZF5-15" value="" style="endArrow=classic;html=1;rounded=0;fillColor=#f8cecc;strokeColor=#f50800;dashed=1;strokeWidth=2;" edge="1" parent="1">
          <mxGeometry width="50" height="50" relative="1" as="geometry">
            <mxPoint x="6" y="383.6" as="sourcePoint" />
            <mxPoint x="77" y="383.6" as="targetPoint" />
          </mxGeometry>
        </mxCell>
        <mxCell id="VJ9uIm3JzbdJXVkBTZF5-63" value="c.g." style="text;html=1;align=center;verticalAlign=middle;resizable=0;points=[];autosize=1;strokeColor=none;fillColor=none;" vertex="1" parent="1">
          <mxGeometry x="-19" y="378" width="37" height="26" as="geometry" />
        </mxCell>
      </root>
    </mxGraphModel>
  </diagram>
</mxfile>
